<svg width="20" height="21" viewBox="0 0 20 21" fill="none" xmlns="http://www.w3.org/2000/svg">
<path d="M5 9.66669C5 7.31002 5 6.13085 5.7325 5.39919C6.46417 4.66669 7.64333 4.66669 10 4.66669H12.5C14.8567 4.66669 16.0358 4.66669 16.7675 5.39919C17.5 6.13085 17.5 7.31002 17.5 9.66669V13.8334C17.5 16.19 17.5 17.3692 16.7675 18.1009C16.0358 18.8334 14.8567 18.8334 12.5 18.8334H10C7.64333 18.8334 6.46417 18.8334 5.7325 18.1009C5 17.3692 5 16.19 5 13.8334V9.66669Z" stroke="#B3FFE1" stroke-width="1.5"/>
<path d="M5 16.3334C4.33696 16.3334 3.70107 16.07 3.23223 15.6011C2.76339 15.1323 2.5 14.4964 2.5 13.8334V8.83335C2.5 5.69085 2.5 4.11919 3.47667 3.14335C4.45333 2.16752 6.02417 2.16669 9.16667 2.16669H12.5C13.163 2.16669 13.7989 2.43008 14.2678 2.89892C14.7366 3.36776 15 4.00365 15 4.66669" stroke="#B3FFE1" stroke-width="1.5"/>
</svg>
