<svg width="270" height="270" viewBox="0 0 270 270" fill="none" xmlns="http://www.w3.org/2000/svg">
<path d="M124.153 10.6066C130.011 4.74873 139.508 4.74874 145.366 10.6066L258.912 124.153C264.77 130.011 264.77 139.508 258.912 145.366L145.366 258.912C139.508 264.77 130.011 264.77 124.153 258.912L10.6066 145.366C4.74869 139.508 4.7487 130.011 10.6066 124.153L124.153 10.6066Z" fill="url(#paint0_linear_5_118)"/>
<rect x="134.759" y="19.5093" width="163.355" height="163.355" rx="8" transform="rotate(45 134.759 19.5093)" fill="#232F2A"/>
<path d="M130.111 165.071C126.393 164.764 123.334 164.258 117.365 162.918C112.606 161.842 106.021 159.184 101.114 156.373C98.3945 154.792 93.9971 151.804 92.2551 150.355C90.3645 148.751 87.6453 145.984 87.2842 145.281C86.9018 144.512 86.9018 143.062 87.3054 142.25C88.0489 140.756 91.278 139.109 98.5007 136.539C107.635 133.244 109.972 132.102 112.203 129.752C113.499 128.39 114.688 126.15 115.134 124.217C115.538 122.416 115.538 121.647 115.113 119.868C114.115 115.65 110.673 112.048 106.594 110.95C101.836 109.654 96.4614 112.729 93.8484 118.264L92.8287 120.395L91.6178 120.461L90.407 120.527L90.2583 119.736C90.0034 118.264 91.3204 114.486 92.9562 112.004C93.9971 110.445 96.0152 108.512 97.6085 107.523C101.624 105.063 107.168 104.514 111.842 106.14C114.816 107.172 116.983 108.863 119.383 112.048C122.378 116.002 125.586 117.803 131.194 118.638C134.062 119.055 136.463 119.055 139.033 118.638C144.132 117.781 146.362 116.727 149.018 113.849C153.351 109.149 154.286 108.248 155.582 107.458C160.234 104.646 166.756 104.426 171.727 106.908C173.172 107.633 173.873 108.182 175.36 109.72C177.42 111.829 178.44 113.498 179.523 116.397C180.267 118.396 180.437 119.934 180.033 120.746C179.757 121.251 178.227 121.339 177.611 120.878C177.42 120.724 176.889 119.758 176.443 118.725C175.997 117.693 175.317 116.353 174.935 115.76C172.301 111.807 167.839 109.874 163.888 110.95C156.219 113.037 152.587 121.603 156.665 127.929C158.917 131.421 161.169 132.673 171.748 136.473C177.718 138.604 180.947 140.141 182.285 141.481C183.156 142.316 183.22 142.469 183.22 143.524C183.22 145.105 183.007 145.522 181.287 147.411C176.231 152.925 165.078 159.426 156.092 162.106C146.978 164.829 138.736 165.774 130.111 165.071ZM127.774 155.099C128.242 154.594 128.242 154.55 127.902 154.001C127.392 153.188 126.988 153.1 126.372 153.671C125.735 154.308 125.735 154.616 126.33 155.209C126.924 155.78 127.179 155.758 127.774 155.099ZM144.047 155.099C144.535 154.572 144.578 154.484 144.302 154.067C143.771 153.254 143.388 153.122 142.772 153.518C142.071 154.001 142.05 154.835 142.687 155.297C143.324 155.758 143.431 155.736 144.047 155.099Z" fill="white"/>
<path d="M100.646 130.631C98.4796 129.862 97.0563 128.478 95.9516 126.062C95.4205 124.898 95.3781 124.568 95.3781 122.042C95.3781 119.407 95.3993 119.231 96.0578 117.825C96.8651 116.046 98.2247 114.618 99.9029 113.762C101.05 113.191 101.262 113.147 103.982 113.147C106.425 113.147 106.977 113.213 107.699 113.586C108.464 113.981 108.549 114.113 108.613 114.904C108.655 115.695 108.591 115.804 107.975 116.134C107.359 116.441 106.318 117.671 106.318 118.089C106.318 118.396 107.296 119.714 107.848 120.131C108.57 120.702 109.271 120.505 110.163 119.516C110.716 118.901 111.034 118.748 111.651 118.748C112.394 118.748 112.437 118.792 112.691 119.736C113.053 121.098 112.861 124.239 112.309 125.732C111.417 128.148 109.526 129.972 107.168 130.696C105.575 131.18 102.091 131.158 100.646 130.631Z" fill="white"/>
<path d="M163.229 130.543C161.063 129.906 159.023 128.148 157.982 125.996C157.472 124.92 157.409 124.48 157.324 122.218C157.239 119.231 157.664 117.517 158.853 115.958C160.638 113.652 162.38 112.795 165.566 112.663C167.521 112.597 167.988 112.641 169.199 113.081C170.558 113.586 170.58 113.608 170.643 114.464C170.686 115.277 170.643 115.365 169.9 115.782C169.432 116.024 168.923 116.573 168.668 117.034C168.264 117.847 168.264 117.869 168.625 118.594C168.838 119.011 169.39 119.56 169.857 119.824L170.686 120.307L171.451 119.846C171.854 119.582 172.343 119.121 172.534 118.835C172.768 118.462 173.065 118.308 173.554 118.308C174.149 118.308 174.297 118.418 174.488 118.967C174.871 120.153 174.977 122.108 174.722 123.58C174.191 126.567 172.598 128.807 170.091 130.015C168.816 130.63 168.434 130.718 166.437 130.762C165.099 130.806 163.824 130.718 163.229 130.543Z" fill="white"/>
<defs>
<linearGradient id="paint0_linear_5_118" x1="134.759" y1="9.50825" x2="134.759" y2="259.1" gradientUnits="userSpaceOnUse">
<stop stop-color="#36C58C"/>
<stop offset="1" stop-color="#261C1C" stop-opacity="0.1"/>
</linearGradient>
</defs>
</svg>
