<svg width="30" height="30" viewBox="0 0 30 30" fill="none" xmlns="http://www.w3.org/2000/svg">
<path fill-rule="evenodd" clip-rule="evenodd" d="M15 3.4375C11.9334 3.4375 8.99247 4.65569 6.82408 6.82408C4.65569 8.99247 3.4375 11.9334 3.4375 15C3.4375 18.0666 4.65569 21.0075 6.82408 23.1759C8.99247 25.3443 11.9334 26.5625 15 26.5625C18.0666 26.5625 21.0075 25.3443 23.1759 23.1759C25.3443 21.0075 26.5625 18.0666 26.5625 15C26.5625 11.9334 25.3443 8.99247 23.1759 6.82408C21.0075 4.65569 18.0666 3.4375 15 3.4375ZM1.5625 15C1.5625 7.57875 7.57875 1.5625 15 1.5625C22.4212 1.5625 28.4375 7.57875 28.4375 15C28.4375 22.4212 22.4212 28.4375 15 28.4375C7.57875 28.4375 1.5625 22.4212 1.5625 15ZM10.4963 19.4412C10.5697 19.3423 10.6618 19.2588 10.7676 19.1954C10.8733 19.1321 10.9904 19.0903 11.1123 19.0723C11.2342 19.0543 11.3585 19.0605 11.478 19.0906C11.5975 19.1206 11.7099 19.174 11.8087 19.2475C12.7187 19.9225 13.8175 20.3125 15 20.3125C16.1825 20.3125 17.2813 19.9212 18.1912 19.2475C18.2898 19.1708 18.4027 19.1146 18.5233 19.0821C18.6439 19.0496 18.7698 19.0416 18.8936 19.0585C19.0173 19.0753 19.1364 19.1167 19.244 19.1803C19.3515 19.2438 19.4452 19.3282 19.5197 19.4285C19.5942 19.5288 19.6478 19.6429 19.6776 19.7642C19.7073 19.8855 19.7125 20.0115 19.6928 20.1349C19.6732 20.2582 19.6291 20.3764 19.5631 20.4825C19.4972 20.5885 19.4107 20.6803 19.3088 20.7525C18.0645 21.6823 16.5533 22.1856 15 22.1875C13.4467 22.1856 11.9355 21.6823 10.6913 20.7525C10.4915 20.6045 10.3588 20.3832 10.3222 20.1373C10.2857 19.8914 10.3483 19.641 10.4963 19.4412Z" fill="#36C58C"/>
<path d="M20 13.125C20 14.16 19.44 15 18.75 15C18.06 15 17.5 14.16 17.5 13.125C17.5 12.09 18.06 11.25 18.75 11.25C19.44 11.25 20 12.09 20 13.125ZM12.5 13.125C12.5 14.16 11.94 15 11.25 15C10.56 15 10 14.16 10 13.125C10 12.09 10.56 11.25 11.25 11.25C11.94 11.25 12.5 12.09 12.5 13.125Z" fill="#36C58C"/>
</svg>
