<svg width="22" height="20" viewBox="0 0 22 20" fill="none" xmlns="http://www.w3.org/2000/svg">
<path d="M10.9847 13.4083L14.2267 17.0943C15.4267 18.4593 16.0277 19.1423 16.6567 18.9753C17.2847 18.8093 17.5007 17.9113 17.9317 16.1143L20.3217 6.14628C20.9867 3.37828 21.3187 1.99528 20.5807 1.31228C19.8427 0.629283 18.5637 1.13728 16.0057 2.15228L4.13974 6.86528C2.09374 7.67828 1.07074 8.08428 1.00574 8.78228C0.998086 8.85341 0.998086 8.92516 1.00574 8.99628C1.06874 9.69528 2.08974 10.1043 4.13374 10.9233C5.05874 11.2943 5.52174 11.4803 5.85374 11.8353C5.89107 11.8753 5.92707 11.9166 5.96174 11.9593C6.26774 12.3393 6.39774 12.8393 6.65874 13.8353L7.14774 15.7023C7.40074 16.6723 7.52774 17.1583 7.86074 17.2243C8.19374 17.2903 8.48274 16.8883 9.06174 16.0833L10.9847 13.4083ZM10.9847 13.4083L10.6677 13.0783C10.3057 12.7003 10.1247 12.5123 10.1247 12.2783C10.1247 12.0443 10.3047 11.8553 10.6677 11.4783L14.2407 7.75428" stroke="white" stroke-width="1.5" stroke-linecap="round" stroke-linejoin="round"/>
</svg>
