<svg width="30" height="30" viewBox="0 0 30 30" fill="none" xmlns="http://www.w3.org/2000/svg">
<path fill-rule="evenodd" clip-rule="evenodd" d="M15 1.5625C13.4253 1.5625 11.9151 2.18806 10.8016 3.30155C9.68806 4.41505 9.0625 5.92528 9.0625 7.5C9.0625 9.07472 9.68806 10.5849 10.8016 11.6984C11.9151 12.8119 13.4253 13.4375 15 13.4375C16.5747 13.4375 18.0849 12.8119 19.1984 11.6984C20.3119 10.5849 20.9375 9.07472 20.9375 7.5C20.9375 5.92528 20.3119 4.41505 19.1984 3.30155C18.0849 2.18806 16.5747 1.5625 15 1.5625ZM10.9375 7.5C10.9375 6.42256 11.3655 5.38925 12.1274 4.62738C12.8892 3.86551 13.9226 3.4375 15 3.4375C16.0774 3.4375 17.1108 3.86551 17.8726 4.62738C18.6345 5.38925 19.0625 6.42256 19.0625 7.5C19.0625 8.57744 18.6345 9.61075 17.8726 10.3726C17.1108 11.1345 16.0774 11.5625 15 11.5625C13.9226 11.5625 12.8892 11.1345 12.1274 10.3726C11.3655 9.61075 10.9375 8.57744 10.9375 7.5Z" fill="#36C58C"/>
<path d="M22.5 4.0625C22.2514 4.0625 22.0129 4.16127 21.8371 4.33709C21.6613 4.5129 21.5625 4.75136 21.5625 5C21.5625 5.24864 21.6613 5.4871 21.8371 5.66291C22.0129 5.83873 22.2514 5.9375 22.5 5.9375C24.2213 5.9375 25.3125 7.07 25.3125 8.125C25.3125 9.18 24.2213 10.3125 22.5 10.3125C22.2514 10.3125 22.0129 10.4113 21.8371 10.5871C21.6613 10.7629 21.5625 11.0014 21.5625 11.25C21.5625 11.4986 21.6613 11.7371 21.8371 11.9129C22.0129 12.0887 22.2514 12.1875 22.5 12.1875C24.9212 12.1875 27.1875 10.5213 27.1875 8.125C27.1875 5.72875 24.9212 4.0625 22.5 4.0625ZM8.4375 5C8.4375 4.75136 8.33873 4.5129 8.16291 4.33709C7.9871 4.16127 7.74864 4.0625 7.5 4.0625C5.07875 4.0625 2.8125 5.72875 2.8125 8.125C2.8125 10.5213 5.07875 12.1875 7.5 12.1875C7.74864 12.1875 7.9871 12.0887 8.16291 11.9129C8.33873 11.7371 8.4375 11.4986 8.4375 11.25C8.4375 11.0014 8.33873 10.7629 8.16291 10.5871C7.9871 10.4113 7.74864 10.3125 7.5 10.3125C5.78 10.3125 4.6875 9.18 4.6875 8.125C4.6875 7.07 5.78 5.9375 7.5 5.9375C7.74864 5.9375 7.9871 5.83873 8.16291 5.66291C8.33873 5.4871 8.4375 5.24864 8.4375 5Z" fill="#36C58C"/>
<path fill-rule="evenodd" clip-rule="evenodd" d="M15 15.3125C12.77 15.3125 10.7075 15.9125 9.17625 16.9337C7.65125 17.9512 6.5625 19.4588 6.5625 21.25C6.5625 23.0412 7.65125 24.55 9.17625 25.5662C10.7075 26.5862 12.77 27.1875 15 27.1875C17.23 27.1875 19.2925 26.5875 20.8238 25.5662C22.3488 24.5487 23.4375 23.0412 23.4375 21.25C23.4375 19.4588 22.3475 17.95 20.8238 16.9337C19.2925 15.9137 17.23 15.3125 15 15.3125ZM8.4375 21.25C8.4375 20.28 9.0275 19.2875 10.2163 18.495C11.4 17.7062 13.0887 17.1875 15 17.1875C16.9125 17.1875 18.6 17.7062 19.7837 18.495C20.9725 19.2875 21.5625 20.28 21.5625 21.25C21.5625 22.22 20.9725 23.2125 19.7837 24.005C18.6 24.7938 16.9113 25.3125 15 25.3125C13.0875 25.3125 11.4 24.7938 10.2163 24.005C9.0275 23.2125 8.4375 22.22 8.4375 21.25Z" fill="#36C58C"/>
<path d="M24.0837 17.3C24.11 17.1796 24.1597 17.0654 24.2301 16.9642C24.3005 16.863 24.3901 16.7766 24.4939 16.7101C24.5977 16.6436 24.7136 16.5982 24.835 16.5765C24.9564 16.5548 25.0808 16.5573 25.2012 16.5838C26.4025 16.8475 27.4862 17.3238 28.2912 17.9825C29.095 18.64 29.6875 19.545 29.6875 20.625C29.6875 21.7063 29.095 22.61 28.2912 23.2675C27.4862 23.9263 26.4037 24.4025 25.2012 24.6663C25.0809 24.6927 24.9566 24.6952 24.8353 24.6736C24.714 24.6519 24.5982 24.6066 24.4944 24.5402C24.3906 24.4738 24.301 24.3877 24.2305 24.2866C24.16 24.1855 24.1102 24.0716 24.0837 23.9513C24.0573 23.831 24.0549 23.7066 24.0765 23.5853C24.0981 23.4641 24.1434 23.3482 24.2098 23.2445C24.2762 23.1407 24.3624 23.051 24.4634 22.9805C24.5645 22.9101 24.6784 22.8602 24.7988 22.8338C25.79 22.6175 26.5813 22.2438 27.1038 21.8163C27.6263 21.3888 27.8125 20.97 27.8125 20.625C27.8125 20.28 27.6263 19.8625 27.1038 19.4338C26.5813 19.005 25.79 18.6338 24.7988 18.4163C24.6784 18.3899 24.5644 18.3401 24.4633 18.2697C24.3622 18.1992 24.276 18.1095 24.2096 18.0058C24.1432 17.902 24.0979 17.7861 24.0763 17.6648C24.0547 17.5435 24.0572 17.4191 24.0837 17.2988M4.8 16.5838C5.043 16.5307 5.29713 16.5764 5.50647 16.7107C5.7158 16.8451 5.86321 17.057 5.91625 17.3C5.96929 17.543 5.92363 17.7972 5.78931 18.0065C5.65498 18.2158 5.443 18.3632 5.2 18.4163C4.21 18.6325 3.41875 19.0063 2.89625 19.4338C2.37375 19.8613 2.1875 20.28 2.1875 20.625C2.1875 20.97 2.37375 21.3875 2.89625 21.8163C3.41875 22.245 4.21 22.6163 5.20125 22.8338C5.44425 22.8872 5.6561 23.0349 5.79019 23.2445C5.92428 23.454 5.96962 23.7083 5.91625 23.9513C5.86287 24.1943 5.71515 24.4061 5.50558 24.5402C5.29601 24.6743 5.04175 24.7197 4.79875 24.6663C3.59625 24.4025 2.51375 23.9263 1.70875 23.2675C0.905 22.61 0.3125 21.705 0.3125 20.625C0.3125 19.5438 0.905 18.64 1.70875 17.9825C2.51375 17.3238 3.5975 16.8475 4.8 16.5838Z" fill="#36C58C"/>
</svg>
